<svg id="surface1" xmlns="http://www.w3.org/2000/svg" xmlns:xlink="http://www.w3.org/1999/xlink" width="440.641" height="188.039" viewBox="0 0 440.641 188.039">
  <defs>
    <clipPath id="clip-path">
      <path id="Trazado_78614" data-name="Trazado 78614" d="M264,0H440.641V188.039H264Zm0,0"/>
    </clipPath>
  </defs>
  <g id="Grupo_42668" data-name="Grupo 42668" clip-path="url(#clip-path)">
    <path id="Trazado_78613" data-name="Trazado 78613" d="M296.824,173.7a93.939,93.939,0,1,0,99.719-159.23C352.57-13.059,295.73-.3,267.07,44.219c-7.621,11.836,3.035,21.625,12.8,6.719,20.086-30.7,68.781-50.219,109.48-24.73a86.96,86.96,0,0,1-92.312,147.4" fill="#3abebe"/>
  </g>
  <path id="Trazado_78615" data-name="Trazado 78615" d="M42.488,128.184a46.693,46.693,0,0,1-15.957,2.848c-7.816,0-14.266-2-19.324-6.828C2.762,119.9,0,113,0,104.953,0,89.535,10.66,78.266,27.988,78.266a32.457,32.457,0,0,1,12.961,2.375l-1.684,5.445A25.662,25.662,0,0,0,27.84,83.863c-12.578,0-20.785,7.824-20.785,20.781,0,13.113,7.824,20.863,19.937,20.863,4.375,0,7.363-.617,8.9-1.383V108.711H25.461V103.34H42.488v24.844" fill="#231f20"/>
  <path id="Trazado_78616" data-name="Trazado 78616" d="M55.9-57.552V-112" transform="translate(0 188.04)" fill="none" stroke="#231f20" stroke-width="8"/>
  <path id="Trazado_78617" data-name="Trazado 78617" d="M85.582,131.336c-9.969,0-17.793-7.363-17.793-19.1C67.789,99.813,76,92.527,86.2,92.527c10.66,0,17.867,7.746,17.867,19.02,0,13.8-9.586,19.789-18.406,19.789Zm.23-5.07c6.441,0,11.27-6.055,11.27-14.488,0-6.289-3.145-14.187-11.117-14.187-7.9,0-11.352,7.363-11.352,14.418,0,8.125,4.605,14.258,11.121,14.258h.078" fill="#231f20"/>
  <path id="Trazado_78618" data-name="Trazado 78618" d="M112.578,76.039h6.746V99.273h.156c2.375-4.137,6.672-6.746,12.652-6.746,9.2,0,15.645,7.668,15.645,18.867,0,13.344-8.437,19.941-16.715,19.941-5.371,0-9.59-2.074-12.426-6.977h-.156l-.379,6.133H112.27c.23-2.531.309-6.289.309-9.59Zm6.746,39.574a12.186,12.186,0,0,0,.234,2.453,10.467,10.467,0,0,0,10.117,7.9c7.133,0,11.273-5.754,11.273-14.266,0-7.516-3.836-13.883-11.043-13.883a11.208,11.208,0,0,0-10.582,11.121v6.676" fill="#231f20"/>
  <path id="Trazado_78619" data-name="Trazado 78619" d="M182.363,121.59a62.434,62.434,0,0,0,.535,8.9H176.84l-.613-4.68H176a13.725,13.725,0,0,1-11.352,5.523c-7.512,0-11.348-5.293-11.348-10.66,0-8.977,7.977-13.883,22.32-13.809V106.1c0-3.066-.848-8.668-8.441-8.59a17.9,17.9,0,0,0-9.738,2.762l-1.531-4.523a24.017,24.017,0,0,1,12.27-3.223c11.426,0,14.188,7.746,14.188,15.184Zm-6.594-10.043c-7.367-.152-15.727,1.148-15.727,8.355,0,4.457,2.918,6.445,6.293,6.445a9.367,9.367,0,0,0,9.125-6.215,6.861,6.861,0,0,0,.309-2.141v-6.445" fill="#231f20"/>
  <path id="Trazado_78620" data-name="Trazado 78620" d="M196.547-57.552V-112" transform="translate(0 188.04)" fill="none" stroke="#231f20" stroke-width="8"/>
  <path id="Trazado_78621" data-name="Trazado 78621" d="M213.957,131.336a4.507,4.507,0,0,1-4.449-4.832,4.576,4.576,0,0,1,4.605-4.832c2.684,0,4.52,1.992,4.52,4.832a4.532,4.532,0,0,1-4.6,4.832h-.078" fill="#3abebe"/>
  <path id="Trazado_78622" data-name="Trazado 78622" d="M226.383,122.359a22.637,22.637,0,0,0,11.887,3.375c6.824,0,10.809-3.527,10.809-8.824,0-4.75-2.762-7.586-9.738-10.2-8.437-3.062-13.648-7.512-13.648-14.719,0-8.055,6.672-14.039,16.715-14.039a23.169,23.169,0,0,1,11.352,2.535l-1.84,5.441a19.177,19.177,0,0,0-9.738-2.453c-7.059,0-9.742,4.219-9.742,7.746,0,4.832,3.148,7.215,10.281,9.973,8.742,3.449,13.109,7.594,13.109,15.184,0,7.98-5.824,14.957-18.02,14.957-4.988,0-10.43-1.539-13.191-3.375l1.766-5.6" fill="#231f20"/>
  <path id="Trazado_78623" data-name="Trazado 78623" d="M272.633,84.477v8.895h9.66v5.141h-9.66v20.016c0,4.6,1.3,7.207,5.059,7.207a12.561,12.561,0,0,0,3.914-.461l.3,5.137a18.319,18.319,0,0,1-5.98.926,9.61,9.61,0,0,1-7.281-2.844c-1.84-2.066-2.609-5.363-2.609-9.738V98.512h-5.754V93.371h5.754V86.543l6.6-2.066" fill="#231f20"/>
  <path id="Trazado_78624" data-name="Trazado 78624" d="M304.547,131.336c-9.973,0-17.8-7.363-17.8-19.1,0-12.422,8.211-19.707,18.41-19.707,10.66,0,17.867,7.746,17.867,19.02,0,13.8-9.59,19.789-18.406,19.789Zm.223-5.07c6.445,0,11.277-6.055,11.277-14.488,0-6.289-3.141-14.187-11.121-14.187-7.9,0-11.348,7.363-11.348,14.418,0,8.125,4.6,14.258,11.117,14.258h.074" fill="#231f20"/>
  <path id="Trazado_78625" data-name="Trazado 78625" d="M331.617,104.953c0-4.375-.074-8.125-.3-11.582h5.9l.3,7.293h.234c1.684-4.992,5.824-8.137,10.348-8.137a7.159,7.159,0,0,1,1.844.23v6.293a20.443,20.443,0,0,0-2.379-.164c-4.754,0-8.129,3.609-9.047,8.6a20.756,20.756,0,0,0-.23,3.219v19.789h-6.746l.074-25.539" fill="#231f20"/>
  <path id="Trazado_78626" data-name="Trazado 78626" d="M360,113.078c.152,9.129,5.9,12.887,12.652,12.887a25.585,25.585,0,0,0,10.273-1.84l1.227,4.754a30.276,30.276,0,0,1-12.422,2.375c-11.352,0-18.254-7.59-18.254-18.711,0-11.27,6.676-20.09,17.492-20.09,12.109,0,15.258,10.656,15.258,17.48a17.443,17.443,0,0,1-.23,3.223Zm19.707-4.828c.078-4.219-1.762-10.969-9.277-10.969-6.906,0-9.816,6.289-10.355,10.969h19.633" fill="#231f20"/>
</svg>
